<?xml version="1.0" encoding="UTF-8" standalone="no"?>
<!-- Created with Inkscape (http://www.inkscape.org/) -->

<svg
   width="432.82227"
   height="247.54181"
   viewBox="0 0 114.51756 65.495437"
   version="1.1"
   id="svg5"
   inkscape:version="1.2 (dc2aeda, 2022-05-15)"
   sodipodi:docname="min_temp.svg"
   xmlns:inkscape="http://www.inkscape.org/namespaces/inkscape"
   xmlns:sodipodi="http://sodipodi.sourceforge.net/DTD/sodipodi-0.dtd"
   xmlns="http://www.w3.org/2000/svg"
   xmlns:svg="http://www.w3.org/2000/svg">
  <sodipodi:namedview
     id="namedview7"
     pagecolor="#ffffff"
     bordercolor="#666666"
     borderopacity="1.0"
     inkscape:showpageshadow="2"
     inkscape:pageopacity="0.0"
     inkscape:pagecheckerboard="0"
     inkscape:deskcolor="#d1d1d1"
     inkscape:document-units="px"
     showgrid="false"
     inkscape:zoom="1.6546393"
     inkscape:cx="178.58877"
     inkscape:cy="82.797501"
     inkscape:window-width="1920"
     inkscape:window-height="1051"
     inkscape:window-x="1920"
     inkscape:window-y="0"
     inkscape:window-maximized="1"
     inkscape:current-layer="layer1" />
  <defs
     id="defs2">
    <marker
       style="overflow:visible"
       id="Arrow2"
       refX="0"
       refY="0"
       orient="auto-start-reverse"
       inkscape:stockid="Arrow2"
       markerWidth="7.6999998"
       markerHeight="5.5999999"
       viewBox="0 0 7.7 5.6"
       inkscape:isstock="true"
       inkscape:collect="always"
       preserveAspectRatio="xMidYMid">
      <path
         transform="scale(0.7)"
         d="M -2,-4 9,0 -2,4 c 2,-2.33 2,-5.66 0,-8 z"
         style="fill:context-stroke;fill-rule:evenodd;stroke:none"
         id="arrow2L" />
    </marker>
  </defs>
  <g
     inkscape:label="Layer 1"
     inkscape:groupmode="layer"
     id="layer1"
     transform="translate(-19.448783,-144.71387)">
    <path
       style="font-variation-settings:normal;opacity:1;fill:none;fill-opacity:1;stroke:#0000ff;stroke-width:0.529431;stroke-linecap:butt;stroke-linejoin:miter;stroke-miterlimit:4;stroke-dasharray:none;stroke-dashoffset:0;stroke-opacity:1;stop-color:#000000;stop-opacity:1"
       d="m 54.890051,165.63945 c 0.363097,0.53597 2.263013,6.24505 2.910395,6.24505 0.647382,0 -0.04069,-6.24505 0.606695,-6.24505 0.647382,0 2.263014,8.02734 2.910396,8.02734 0.647382,0 -0.04069,-8.02734 0.606695,-8.02734 0.647382,0 2.263013,13.71215 2.910395,13.71215 0.647382,0 -0.04069,-13.71215 0.606695,-13.71215 0.647382,0 2.263014,18.73907 2.910396,18.73907 0.647382,0 -0.04069,-18.73907 0.606695,-18.73907 0.647382,0 2.263013,21.08558 2.910395,21.08558 0.647382,0 -0.04069,-21.08558 0.606695,-21.08558 0.647382,0 2.263014,24.22697 2.910396,24.22697 0.647382,0 -0.04069,-24.22697 0.606695,-24.22697 0.647382,0 2.263013,25.8205 2.910395,25.8205 0.647382,0 -0.04069,-25.8205 0.606695,-25.8205 0.647382,0 2.263014,25.40365 2.910396,25.40365 0.647383,0 -0.04068,-25.40365 0.606699,-25.40365 0.64738,0 2.26301,25.63915 2.91039,25.63915 0.64738,0 -0.04068,-25.63915 0.6067,-25.63915 0.64738,0 2.26301,25.63915 2.91039,25.63915 0.64738,0 -0.04068,-25.63915 0.6067,-25.63915 0.64738,0 2.26301,25.63915 2.91039,25.63915 0.64738,0 -0.04068,-25.63915 0.6067,-25.63915 0.64738,0 2.26301,25.63915 2.91039,25.63915 0.64738,0 -0.04068,-25.63915 0.6067,-25.63915 0.64738,0 2.26301,25.63915 2.910391,25.63915 0.64738,0 -0.0407,-25.63915 0.6067,-25.63915 0.64738,0 2.26301,25.63915 2.91039,25.63915 0.64738,0 -0.0407,-25.63915 0.6067,-25.63915 0.64738,0 2.26301,25.63915 2.91039,25.63915 0.64738,0 -0.0407,-25.63915 0.6067,-25.63915 0.64738,0 2.26301,25.63915 2.91039,25.63915 0.64738,0 -0.0407,-25.63915 0.6067,-25.63915 0.64738,0 2.26301,25.63915 2.91039,25.63915 0.64738,0 -0.0407,-25.63915 0.6067,-25.63915 0.64738,0 2.26301,25.63915 2.91039,25.63915 0.64738,0 -0.0407,-25.63915 0.6067,-25.63915 0.64738,0 2.26301,25.63915 2.91039,25.63915 0.64738,0 -0.0407,-25.63915 0.6067,-25.63915 0.64738,0 2.26301,25.63915 2.91039,25.63915 0.64738,0 -0.0407,-25.63915 0.6067,-25.63915 0.64738,0 2.26301,25.63915 2.91039,25.63915 0.64739,0 -0.0407,-25.63915 0.6067,-25.63915"
       id="path2695"
       sodipodi:nodetypes="csssssssssssssssssssssssssssssssssssssssssc" />
    <path
       style="font-variation-settings:normal;opacity:1;vector-effect:none;fill:none;fill-opacity:1;stroke:#666666;stroke-width:1.826;stroke-linecap:butt;stroke-linejoin:miter;stroke-miterlimit:4;stroke-dasharray:none;stroke-dashoffset:0;stroke-opacity:1;-inkscape-stroke:none;stop-color:#000000;stop-opacity:1"
       d="m 49.068182,158.10063 v 43.52595 h 84.898158"
       id="path2697" />
    <path
       style="font-variation-settings:normal;opacity:1;fill:none;fill-opacity:1;stroke:#ff0000;stroke-width:0.661723;stroke-linecap:butt;stroke-linejoin:miter;stroke-miterlimit:4;stroke-dasharray:none;stroke-dashoffset:0;stroke-opacity:1;stop-color:#000000;stop-opacity:1"
       d="m 55.076158,196.11809 c 5.708106,0.48871 10.925266,-23.11285 17.410544,-32.6858 0.363097,-0.53597 1.111163,-0.82429 1.758545,-0.82429 0.647382,0 1.111163,0.82429 1.758545,0.82429 0.647382,0 1.111164,-0.82429 1.758546,-0.82429 0.647382,0 1.111163,0.82429 1.758545,0.82429 0.647382,0 1.111163,-0.82429 1.758545,-0.82429 0.647382,0 1.111163,0.82429 1.758545,0.82429 0.647382,0 1.111164,-0.82429 1.758546,-0.82429 0.647382,0 1.111163,0.82429 1.758545,0.82429 0.647382,0 1.111163,-0.82429 1.758545,-0.82429 0.647382,0 1.111163,0.82429 1.758545,0.82429 0.647382,0 1.111164,-0.82429 1.758546,-0.82429 0.647382,0 1.111163,0.82429 1.758545,0.82429 0.647382,0 1.111163,-0.82429 1.758545,-0.82429 0.647382,0 1.111163,0.82429 1.758545,0.82429 0.647382,0 1.111164,-0.82429 1.758546,-0.82429 0.647383,0 1.111166,0.82429 1.758549,0.82429 0.64738,0 1.11116,-0.82429 1.75854,-0.82429 0.64738,0 1.11117,0.82429 1.75855,0.82429 0.64738,0 1.11116,-0.82429 1.75854,-0.82429 0.64738,0 1.11117,0.82429 1.75855,0.82429 0.64738,0 1.11116,-0.82429 1.75854,-0.82429 0.64738,0 1.11117,0.82429 1.75855,0.82429 0.64738,0 1.11116,-0.82429 1.75854,-0.82429 0.64738,0 1.11117,0.82429 1.75855,0.82429 0.64738,0 1.11116,-0.82429 1.75854,-0.82429 0.64738,0 1.11117,0.82429 1.75855,0.82429 0.64738,0 1.11116,-0.82429 1.75854,-0.82429 0.64738,0 1.11117,0.82429 1.75855,0.82429 0.64738,0 1.11116,-0.82429 1.75854,-0.82429 0.64738,0 1.11117,0.82429 1.75855,0.82429 0.64738,0 1.11116,-0.82429 1.75854,-0.82429 0.64738,0 1.75855,0.82429 1.75855,0.82429"
       id="path2699"
       sodipodi:nodetypes="cssssssssssssssssssssssssssssssssc" />
    <text
       xml:space="preserve"
       style="font-size:5.52559px;line-height:1.25;font-family:'Titillium Web';-inkscape-font-specification:'Titillium Web';letter-spacing:0px;stroke-width:0.276279"
       x="85.933296"
       y="210.15405"
       id="text2703"><tspan
         sodipodi:role="line"
         id="tspan2701"
         style="stroke-width:0.276279"
         x="85.933296"
         y="210.15405">Time</tspan></text>
    <text
       xml:space="preserve"
       style="font-size:5.52559px;line-height:1.25;font-family:'Titillium Web';-inkscape-font-specification:'Titillium Web';letter-spacing:0px;stroke-width:0.276279"
       x="100.36471"
       y="160.70634"
       id="text2711"><tspan
         sodipodi:role="line"
         id="tspan2709"
         style="stroke-width:0.276279"
         x="100.36471"
         y="160.70634">Temperature</tspan></text>
    <text
       xml:space="preserve"
       style="font-size:5.52559px;line-height:1.25;font-family:'Titillium Web';-inkscape-font-specification:'Titillium Web';letter-spacing:0px;stroke-width:0.276279"
       x="69.91922"
       y="148.68124"
       id="text2715"><tspan
         sodipodi:role="line"
         id="tspan2713"
         style="stroke-width:0.276279"
         x="69.91922"
         y="148.68124">Discarded data</tspan></text>
    <rect
       style="font-variation-settings:normal;opacity:1;vector-effect:none;fill:#999999;fill-opacity:0.465558;fill-rule:evenodd;stroke:none;stroke-width:0.263138;stroke-linecap:butt;stroke-linejoin:miter;stroke-miterlimit:4;stroke-dasharray:none;stroke-dashoffset:0;stroke-opacity:1;stop-color:#000000;stop-opacity:1"
       id="rect2717"
       width="22.589432"
       height="42.622753"
       x="50.006107"
       y="158.10063"
       ry="0" />
    <path
       style="font-variation-settings:normal;opacity:1;fill:none;fill-opacity:1;stroke:#666666;stroke-width:0.370681;stroke-linecap:butt;stroke-linejoin:miter;stroke-miterlimit:4;stroke-dasharray:0.741362, 0.370681;stroke-dashoffset:0;stroke-opacity:1;stop-color:#000000;stop-opacity:1"
       d="M 44.472759,163.92666 H 72.535518"
       id="path2719"
       sodipodi:nodetypes="cc" />
    <path
       style="font-variation-settings:normal;opacity:1;fill:none;fill-opacity:1;stroke:#666666;stroke-width:0.370681;stroke-linecap:butt;stroke-linejoin:miter;stroke-miterlimit:4;stroke-dasharray:0.741362, 0.370681;stroke-dashoffset:0;stroke-opacity:1;stop-color:#000000;stop-opacity:1"
       d="m 72.571162,158.10063 v 43.52595"
       id="path2721"
       sodipodi:nodetypes="cc" />
    <text
       xml:space="preserve"
       style="font-size:5.52559px;line-height:1.25;font-family:'Titillium Web';-inkscape-font-specification:'Titillium Web';letter-spacing:0px;stroke-width:0.276279"
       x="123.24026"
       y="196.65796"
       id="text2727"><tspan
         sodipodi:role="line"
         id="tspan2725"
         style="stroke-width:0.276279"
         x="123.24026"
         y="196.65796">O<tspan
   style="font-size:65%;baseline-shift:sub"
   id="tspan2723">2</tspan></tspan></text>
    <path
       style="font-variation-settings:normal;opacity:1;vector-effect:none;fill:none;fill-opacity:1;stroke:#000000;stroke-width:0.499999;stroke-linecap:butt;stroke-linejoin:miter;stroke-miterlimit:4;stroke-dasharray:none;stroke-dashoffset:0;stroke-opacity:1;-inkscape-stroke:none;marker-end:url(#Arrow2);stop-color:#000000;stop-opacity:1"
       d="m 67.922396,146.97311 c -5.792009,-0.22609 -7.210894,1.26722 -7.081422,7.0576"
       id="path2729"
       sodipodi:nodetypes="cc" />
    <text
       xml:space="preserve"
       style="font-size:5.14077px;line-height:1.25;font-family:'Titillium Web';-inkscape-font-specification:'Titillium Web';letter-spacing:0px;stroke-width:0.257038"
       x="19.200279"
       y="165.15773"
       id="text2737"><tspan
         sodipodi:role="line"
         id="tspan2735"
         style="font-style:normal;font-variant:normal;font-weight:normal;font-stretch:normal;font-family:Cousine;-inkscape-font-specification:Cousine;stroke-width:0.257038"
         x="19.200279"
         y="165.15773">min_temp</tspan></text>
  </g>
</svg>
